 http://img716.imageshack.us/img716/606/111ehr.png


Source: COMPLETE.NTSC.DVDR-KART3LDVD
 
http://www.imdb.com/title/tt2047910/

High school senior Casey finds herself seduced into the fast lifestyle of a call girl ring run by a campus police officer and must pull herself out before she loses all self-control.

General
Complete name                            : Walking The Halls 2012 DVDRip x264 AAC-BiGKATS.mp4
Format                                   : MPEG-4
Format profile                           : Base Media
Codec ID                                 : isom
File size                                : 700 MiB
Duration                                 : 1h 28mn
Overall bit rate mode                    : Variable
Overall bit rate                         : 1 100 Kbps
Encoded date                             : UTC 2013-01-15 18:57:31
Tagged date                              : UTC 2013-01-15 18:57:31

Video
ID                                       : 1
Format                                   : AVC
Format/Info                              : Advanced Video Codec
Format profile                           : High@L4.1
Format settings, CABAC                   : Yes
Format settings, ReFrames                : 3 frames
Codec ID                                 : avc1
Codec ID/Info                            : Advanced Video Coding
Duration                                 : 1h 28mn
Bit rate mode                            : Variable
Bit rate                                 : 969 Kbps
Maximum bit rate                         : 40.0 Mbps
Width                                    : 720 pixels
Height                                   : 384 pixels
Display aspect ratio                     : 1.85:1
Frame rate mode                          : Constant
Frame rate                               : 23.976 fps
Color space                              : YUV
Chroma subsampling                       : 4:2:0
Bit depth                                : 8 bits
Scan type                                : Progressive
Bits/(Pixel*Frame)                       : 0.146
Stream size                              : 616 MiB (88%)
Writing library                          : x264 core 129 r2245 bc13772

Audio
ID                                       : 2
Format                                   : AAC
Format/Info                              : Advanced Audio Codec
Format profile                           : LC
Codec ID                                 : 40
Duration                                 : 1h 28mn
Bit rate mode                            : Variable
Bit rate                                 : 128 Kbps
Maximum bit rate                         : 153 Kbps
Channel(s)                               : 6 channels
Channel positions                        : Front: L C R, Side: L R, LFE
Sampling rate                            : 48.0 KHz
Compression mode                         : Lossy
Stream size                              : 81.1 MiB (12%)
Language                                 : English
Encoded date                             : UTC 2013-01-15 13:20:24
Tagged date                              : UTC 2013-01-15 18:58:04


 
http://www.shotpix.com/images/89852385001437155363.png 
http://www.shotpix.com/images/69596223219163480278.png 
http://www.shotpix.com/images/69059795779658018226.png